<mxfile host="app.diagrams.net" agent="Mozilla/5.0 (Windows NT 10.0; Win64; x64; rv:132.0) Gecko/20100101 Firefox/132.0" version="24.8.3">
  <diagram name="Page-1" id="2svD61wNfTk6cq-G6SNN">
    <mxGraphModel dx="1853" dy="2370" grid="1" gridSize="10" guides="1" tooltips="1" connect="1" arrows="1" fold="1" page="1" pageScale="1" pageWidth="850" pageHeight="1100" math="0" shadow="0">
      <root>
        <mxCell id="0" />
        <mxCell id="1" parent="0" />
        <mxCell id="62B-yhtZvVCxsL9R08EE-3" style="edgeStyle=orthogonalEdgeStyle;rounded=0;orthogonalLoop=1;jettySize=auto;html=1;entryX=0;entryY=0.5;entryDx=0;entryDy=0;" edge="1" parent="1" target="62B-yhtZvVCxsL9R08EE-1">
          <mxGeometry relative="1" as="geometry">
            <mxPoint x="40" y="310.2105263157896" as="targetPoint" />
            <mxPoint x="60" y="310" as="sourcePoint" />
          </mxGeometry>
        </mxCell>
        <mxCell id="62B-yhtZvVCxsL9R08EE-4" value="Start" style="edgeLabel;html=1;align=center;verticalAlign=middle;resizable=0;points=[];" vertex="1" connectable="0" parent="62B-yhtZvVCxsL9R08EE-3">
          <mxGeometry x="-0.1578" y="2" relative="1" as="geometry">
            <mxPoint as="offset" />
          </mxGeometry>
        </mxCell>
        <mxCell id="62B-yhtZvVCxsL9R08EE-11" style="edgeStyle=orthogonalEdgeStyle;rounded=0;orthogonalLoop=1;jettySize=auto;html=1;exitX=1;exitY=0;exitDx=0;exitDy=0;entryX=0;entryY=0.5;entryDx=0;entryDy=0;" edge="1" parent="1" source="62B-yhtZvVCxsL9R08EE-1" target="62B-yhtZvVCxsL9R08EE-6">
          <mxGeometry relative="1" as="geometry">
            <Array as="points">
              <mxPoint x="208" y="-150" />
            </Array>
          </mxGeometry>
        </mxCell>
        <mxCell id="62B-yhtZvVCxsL9R08EE-28" style="edgeStyle=orthogonalEdgeStyle;rounded=0;orthogonalLoop=1;jettySize=auto;html=1;exitX=0.5;exitY=0;exitDx=0;exitDy=0;entryX=0;entryY=0.5;entryDx=0;entryDy=0;" edge="1" parent="1" source="62B-yhtZvVCxsL9R08EE-1" target="62B-yhtZvVCxsL9R08EE-27">
          <mxGeometry relative="1" as="geometry" />
        </mxCell>
        <mxCell id="62B-yhtZvVCxsL9R08EE-133" style="edgeStyle=orthogonalEdgeStyle;rounded=0;orthogonalLoop=1;jettySize=auto;html=1;exitX=1;exitY=1;exitDx=0;exitDy=0;" edge="1" parent="1" source="62B-yhtZvVCxsL9R08EE-1" target="62B-yhtZvVCxsL9R08EE-7">
          <mxGeometry relative="1" as="geometry">
            <Array as="points">
              <mxPoint x="208" y="300" />
              <mxPoint x="240" y="300" />
              <mxPoint x="240" y="100" />
            </Array>
          </mxGeometry>
        </mxCell>
        <mxCell id="62B-yhtZvVCxsL9R08EE-139" style="edgeStyle=orthogonalEdgeStyle;rounded=0;orthogonalLoop=1;jettySize=auto;html=1;exitX=1;exitY=0.5;exitDx=0;exitDy=0;entryX=0;entryY=0.5;entryDx=0;entryDy=0;" edge="1" parent="1" source="62B-yhtZvVCxsL9R08EE-1" target="62B-yhtZvVCxsL9R08EE-8">
          <mxGeometry relative="1" as="geometry">
            <Array as="points">
              <mxPoint x="240" y="310" />
              <mxPoint x="240" y="600" />
            </Array>
          </mxGeometry>
        </mxCell>
        <mxCell id="62B-yhtZvVCxsL9R08EE-140" style="edgeStyle=orthogonalEdgeStyle;rounded=0;orthogonalLoop=1;jettySize=auto;html=1;entryX=0;entryY=0.5;entryDx=0;entryDy=0;" edge="1" parent="1" source="62B-yhtZvVCxsL9R08EE-1" target="62B-yhtZvVCxsL9R08EE-29">
          <mxGeometry relative="1" as="geometry" />
        </mxCell>
        <mxCell id="62B-yhtZvVCxsL9R08EE-161" style="edgeStyle=orthogonalEdgeStyle;rounded=0;orthogonalLoop=1;jettySize=auto;html=1;exitX=0.5;exitY=1;exitDx=0;exitDy=0;entryX=0;entryY=0.5;entryDx=0;entryDy=0;" edge="1" parent="1" source="62B-yhtZvVCxsL9R08EE-1" target="62B-yhtZvVCxsL9R08EE-171">
          <mxGeometry relative="1" as="geometry">
            <mxPoint x="180.0588235294117" y="950" as="targetPoint" />
            <Array as="points">
              <mxPoint x="180" y="1010" />
              <mxPoint x="383" y="1010" />
            </Array>
          </mxGeometry>
        </mxCell>
        <mxCell id="62B-yhtZvVCxsL9R08EE-162" style="edgeStyle=orthogonalEdgeStyle;rounded=0;orthogonalLoop=1;jettySize=auto;html=1;exitX=1;exitY=1;exitDx=0;exitDy=0;entryX=0;entryY=0.5;entryDx=0;entryDy=0;" edge="1" parent="1" source="62B-yhtZvVCxsL9R08EE-1" target="62B-yhtZvVCxsL9R08EE-142">
          <mxGeometry relative="1" as="geometry">
            <Array as="points">
              <mxPoint x="190" y="338" />
              <mxPoint x="190" y="870" />
            </Array>
          </mxGeometry>
        </mxCell>
        <mxCell id="62B-yhtZvVCxsL9R08EE-201" style="edgeStyle=orthogonalEdgeStyle;rounded=0;orthogonalLoop=1;jettySize=auto;html=1;exitX=0;exitY=1;exitDx=0;exitDy=0;entryX=0.008;entryY=0.623;entryDx=0;entryDy=0;entryPerimeter=0;" edge="1" parent="1" source="62B-yhtZvVCxsL9R08EE-1" target="62B-yhtZvVCxsL9R08EE-188">
          <mxGeometry relative="1" as="geometry">
            <mxPoint x="120" y="1080" as="targetPoint" />
            <Array as="points">
              <mxPoint x="170" y="338" />
              <mxPoint x="170" y="1130" />
            </Array>
          </mxGeometry>
        </mxCell>
        <mxCell id="62B-yhtZvVCxsL9R08EE-1" value="0" style="ellipse;whiteSpace=wrap;html=1;aspect=fixed;" vertex="1" parent="1">
          <mxGeometry x="140" y="270" width="80" height="80" as="geometry" />
        </mxCell>
        <mxCell id="62B-yhtZvVCxsL9R08EE-65" style="edgeStyle=orthogonalEdgeStyle;rounded=0;orthogonalLoop=1;jettySize=auto;html=1;exitX=1;exitY=0.5;exitDx=0;exitDy=0;" edge="1" parent="1" source="62B-yhtZvVCxsL9R08EE-6" target="62B-yhtZvVCxsL9R08EE-64">
          <mxGeometry relative="1" as="geometry" />
        </mxCell>
        <mxCell id="62B-yhtZvVCxsL9R08EE-6" value="2" style="ellipse;whiteSpace=wrap;html=1;aspect=fixed;" vertex="1" parent="1">
          <mxGeometry x="385" y="-190" width="80" height="80" as="geometry" />
        </mxCell>
        <mxCell id="62B-yhtZvVCxsL9R08EE-77" style="edgeStyle=orthogonalEdgeStyle;rounded=0;orthogonalLoop=1;jettySize=auto;html=1;exitX=1;exitY=0.5;exitDx=0;exitDy=0;entryX=0;entryY=0.5;entryDx=0;entryDy=0;" edge="1" parent="1" source="62B-yhtZvVCxsL9R08EE-7" target="62B-yhtZvVCxsL9R08EE-76">
          <mxGeometry relative="1" as="geometry" />
        </mxCell>
        <mxCell id="62B-yhtZvVCxsL9R08EE-84" style="edgeStyle=orthogonalEdgeStyle;rounded=0;orthogonalLoop=1;jettySize=auto;html=1;exitX=0.5;exitY=0;exitDx=0;exitDy=0;" edge="1" parent="1" source="62B-yhtZvVCxsL9R08EE-7" target="62B-yhtZvVCxsL9R08EE-202">
          <mxGeometry relative="1" as="geometry">
            <mxPoint x="660" y="210" as="targetPoint" />
            <Array as="points">
              <mxPoint x="1840" />
            </Array>
          </mxGeometry>
        </mxCell>
        <mxCell id="62B-yhtZvVCxsL9R08EE-7" value="3" style="ellipse;whiteSpace=wrap;html=1;aspect=fixed;" vertex="1" parent="1">
          <mxGeometry x="382.5" y="60" width="80" height="80" as="geometry" />
        </mxCell>
        <mxCell id="62B-yhtZvVCxsL9R08EE-90" style="edgeStyle=orthogonalEdgeStyle;rounded=0;orthogonalLoop=1;jettySize=auto;html=1;exitX=1;exitY=0.5;exitDx=0;exitDy=0;entryX=0;entryY=0.5;entryDx=0;entryDy=0;" edge="1" parent="1" source="62B-yhtZvVCxsL9R08EE-8" target="62B-yhtZvVCxsL9R08EE-88">
          <mxGeometry relative="1" as="geometry" />
        </mxCell>
        <mxCell id="62B-yhtZvVCxsL9R08EE-8" value="5" style="ellipse;whiteSpace=wrap;html=1;aspect=fixed;" vertex="1" parent="1">
          <mxGeometry x="380" y="560" width="80" height="80" as="geometry" />
        </mxCell>
        <mxCell id="62B-yhtZvVCxsL9R08EE-24" value="f" style="text;html=1;align=center;verticalAlign=middle;resizable=0;points=[];autosize=1;strokeColor=none;fillColor=none;fontSize=16;" vertex="1" parent="1">
          <mxGeometry x="310" y="-190" width="30" height="30" as="geometry" />
        </mxCell>
        <mxCell id="62B-yhtZvVCxsL9R08EE-25" value="i" style="text;html=1;align=center;verticalAlign=middle;resizable=0;points=[];autosize=1;strokeColor=none;fillColor=none;fontSize=16;" vertex="1" parent="1">
          <mxGeometry x="310" y="50" width="30" height="30" as="geometry" />
        </mxCell>
        <mxCell id="62B-yhtZvVCxsL9R08EE-26" value="m" style="text;html=1;align=center;verticalAlign=middle;resizable=0;points=[];autosize=1;strokeColor=none;fillColor=none;fontSize=16;" vertex="1" parent="1">
          <mxGeometry x="310" y="560" width="40" height="30" as="geometry" />
        </mxCell>
        <mxCell id="62B-yhtZvVCxsL9R08EE-36" style="edgeStyle=orthogonalEdgeStyle;rounded=0;orthogonalLoop=1;jettySize=auto;html=1;exitX=1;exitY=0.5;exitDx=0;exitDy=0;" edge="1" parent="1" source="62B-yhtZvVCxsL9R08EE-27" target="62B-yhtZvVCxsL9R08EE-35">
          <mxGeometry relative="1" as="geometry" />
        </mxCell>
        <mxCell id="62B-yhtZvVCxsL9R08EE-39" style="edgeStyle=orthogonalEdgeStyle;rounded=0;orthogonalLoop=1;jettySize=auto;html=1;exitX=0.5;exitY=0;exitDx=0;exitDy=0;entryX=0;entryY=0.5;entryDx=0;entryDy=0;" edge="1" parent="1" source="62B-yhtZvVCxsL9R08EE-27" target="62B-yhtZvVCxsL9R08EE-38">
          <mxGeometry relative="1" as="geometry" />
        </mxCell>
        <mxCell id="62B-yhtZvVCxsL9R08EE-27" value="1" style="ellipse;whiteSpace=wrap;html=1;aspect=fixed;" vertex="1" parent="1">
          <mxGeometry x="385" y="-330" width="80" height="80" as="geometry" />
        </mxCell>
        <mxCell id="62B-yhtZvVCxsL9R08EE-105" style="edgeStyle=orthogonalEdgeStyle;rounded=0;orthogonalLoop=1;jettySize=auto;html=1;exitX=1;exitY=0.5;exitDx=0;exitDy=0;entryX=0;entryY=0.5;entryDx=0;entryDy=0;" edge="1" parent="1" source="62B-yhtZvVCxsL9R08EE-29" target="62B-yhtZvVCxsL9R08EE-99">
          <mxGeometry relative="1" as="geometry" />
        </mxCell>
        <mxCell id="62B-yhtZvVCxsL9R08EE-29" value="4" style="ellipse;whiteSpace=wrap;html=1;aspect=fixed;" vertex="1" parent="1">
          <mxGeometry x="370" y="270" width="80" height="80" as="geometry" />
        </mxCell>
        <mxCell id="62B-yhtZvVCxsL9R08EE-31" value="e" style="text;html=1;align=center;verticalAlign=middle;resizable=0;points=[];autosize=1;strokeColor=none;fillColor=none;fontSize=16;" vertex="1" parent="1">
          <mxGeometry x="315" y="-340" width="30" height="30" as="geometry" />
        </mxCell>
        <mxCell id="62B-yhtZvVCxsL9R08EE-33" value="r" style="text;html=1;align=center;verticalAlign=middle;resizable=0;points=[];autosize=1;strokeColor=none;fillColor=none;fontSize=16;" vertex="1" parent="1">
          <mxGeometry x="310" y="270" width="30" height="30" as="geometry" />
        </mxCell>
        <mxCell id="62B-yhtZvVCxsL9R08EE-42" style="edgeStyle=orthogonalEdgeStyle;rounded=0;orthogonalLoop=1;jettySize=auto;html=1;exitX=1;exitY=0.5;exitDx=0;exitDy=0;entryX=0;entryY=0.5;entryDx=0;entryDy=0;" edge="1" parent="1" source="62B-yhtZvVCxsL9R08EE-35" target="62B-yhtZvVCxsL9R08EE-41">
          <mxGeometry relative="1" as="geometry" />
        </mxCell>
        <mxCell id="62B-yhtZvVCxsL9R08EE-35" value="11" style="ellipse;whiteSpace=wrap;html=1;aspect=fixed;" vertex="1" parent="1">
          <mxGeometry x="570" y="-330" width="80" height="80" as="geometry" />
        </mxCell>
        <mxCell id="62B-yhtZvVCxsL9R08EE-37" value="l" style="text;html=1;align=center;verticalAlign=middle;resizable=0;points=[];autosize=1;strokeColor=none;fillColor=none;fontSize=16;" vertex="1" parent="1">
          <mxGeometry x="490" y="-330" width="30" height="30" as="geometry" />
        </mxCell>
        <mxCell id="62B-yhtZvVCxsL9R08EE-49" style="edgeStyle=orthogonalEdgeStyle;rounded=0;orthogonalLoop=1;jettySize=auto;html=1;exitX=1;exitY=0.5;exitDx=0;exitDy=0;" edge="1" parent="1" source="62B-yhtZvVCxsL9R08EE-38" target="62B-yhtZvVCxsL9R08EE-52">
          <mxGeometry relative="1" as="geometry">
            <mxPoint x="750" y="-440" as="targetPoint" />
          </mxGeometry>
        </mxCell>
        <mxCell id="62B-yhtZvVCxsL9R08EE-38" value="10" style="ellipse;whiteSpace=wrap;html=1;aspect=fixed;" vertex="1" parent="1">
          <mxGeometry x="570" y="-480" width="80" height="80" as="geometry" />
        </mxCell>
        <mxCell id="62B-yhtZvVCxsL9R08EE-40" value="n" style="text;html=1;align=center;verticalAlign=middle;resizable=0;points=[];autosize=1;strokeColor=none;fillColor=none;fontSize=16;" vertex="1" parent="1">
          <mxGeometry x="500" y="-480" width="30" height="30" as="geometry" />
        </mxCell>
        <mxCell id="62B-yhtZvVCxsL9R08EE-45" style="edgeStyle=orthogonalEdgeStyle;rounded=0;orthogonalLoop=1;jettySize=auto;html=1;exitX=1;exitY=0.5;exitDx=0;exitDy=0;" edge="1" parent="1" source="62B-yhtZvVCxsL9R08EE-41" target="62B-yhtZvVCxsL9R08EE-56">
          <mxGeometry relative="1" as="geometry">
            <mxPoint x="920" y="-290" as="targetPoint" />
          </mxGeometry>
        </mxCell>
        <mxCell id="62B-yhtZvVCxsL9R08EE-41" value="20" style="ellipse;whiteSpace=wrap;html=1;aspect=fixed;" vertex="1" parent="1">
          <mxGeometry x="740" y="-330" width="80" height="80" as="geometry" />
        </mxCell>
        <mxCell id="62B-yhtZvVCxsL9R08EE-43" value="s" style="text;html=1;align=center;verticalAlign=middle;resizable=0;points=[];autosize=1;strokeColor=none;fillColor=none;fontSize=16;" vertex="1" parent="1">
          <mxGeometry x="680" y="-330" width="30" height="30" as="geometry" />
        </mxCell>
        <mxCell id="62B-yhtZvVCxsL9R08EE-46" value="e" style="text;html=1;align=center;verticalAlign=middle;resizable=0;points=[];autosize=1;strokeColor=none;fillColor=none;fontSize=16;" vertex="1" parent="1">
          <mxGeometry x="860" y="-330" width="30" height="30" as="geometry" />
        </mxCell>
        <mxCell id="62B-yhtZvVCxsL9R08EE-50" value="d" style="text;html=1;align=center;verticalAlign=middle;resizable=0;points=[];autosize=1;strokeColor=none;fillColor=none;fontSize=16;" vertex="1" parent="1">
          <mxGeometry x="680" y="-480" width="30" height="30" as="geometry" />
        </mxCell>
        <mxCell id="62B-yhtZvVCxsL9R08EE-54" style="edgeStyle=orthogonalEdgeStyle;rounded=0;orthogonalLoop=1;jettySize=auto;html=1;exitX=1;exitY=0.5;exitDx=0;exitDy=0;" edge="1" parent="1" source="62B-yhtZvVCxsL9R08EE-52" target="62B-yhtZvVCxsL9R08EE-202">
          <mxGeometry relative="1" as="geometry">
            <mxPoint x="920" y="-320" as="targetPoint" />
          </mxGeometry>
        </mxCell>
        <mxCell id="62B-yhtZvVCxsL9R08EE-52" value="19" style="ellipse;shape=doubleEllipse;whiteSpace=wrap;html=1;aspect=fixed;" vertex="1" parent="1">
          <mxGeometry x="750" y="-480" width="80" height="80" as="geometry" />
        </mxCell>
        <mxCell id="62B-yhtZvVCxsL9R08EE-55" value="l" style="text;html=1;align=center;verticalAlign=middle;resizable=0;points=[];autosize=1;strokeColor=none;fillColor=none;fontSize=16;" vertex="1" parent="1">
          <mxGeometry x="860" y="-480" width="30" height="30" as="geometry" />
        </mxCell>
        <mxCell id="62B-yhtZvVCxsL9R08EE-58" style="edgeStyle=orthogonalEdgeStyle;rounded=0;orthogonalLoop=1;jettySize=auto;html=1;exitX=1;exitY=0.5;exitDx=0;exitDy=0;entryX=0;entryY=0.5;entryDx=0;entryDy=0;" edge="1" parent="1" source="62B-yhtZvVCxsL9R08EE-56" target="62B-yhtZvVCxsL9R08EE-57">
          <mxGeometry relative="1" as="geometry" />
        </mxCell>
        <mxCell id="62B-yhtZvVCxsL9R08EE-56" value="27" style="ellipse;shape=doubleEllipse;whiteSpace=wrap;html=1;aspect=fixed;" vertex="1" parent="1">
          <mxGeometry x="920" y="-330" width="80" height="80" as="geometry" />
        </mxCell>
        <mxCell id="62B-yhtZvVCxsL9R08EE-62" style="edgeStyle=orthogonalEdgeStyle;rounded=0;orthogonalLoop=1;jettySize=auto;html=1;exitX=1;exitY=0.5;exitDx=0;exitDy=0;" edge="1" parent="1" source="62B-yhtZvVCxsL9R08EE-57" target="62B-yhtZvVCxsL9R08EE-202">
          <mxGeometry relative="1" as="geometry">
            <mxPoint x="1275" y="-170" as="targetPoint" />
          </mxGeometry>
        </mxCell>
        <mxCell id="62B-yhtZvVCxsL9R08EE-57" value="33" style="ellipse;whiteSpace=wrap;html=1;aspect=fixed;" vertex="1" parent="1">
          <mxGeometry x="1090" y="-330" width="80" height="80" as="geometry" />
        </mxCell>
        <mxCell id="62B-yhtZvVCxsL9R08EE-59" value="i" style="text;html=1;align=center;verticalAlign=middle;resizable=0;points=[];autosize=1;strokeColor=none;fillColor=none;fontSize=16;" vertex="1" parent="1">
          <mxGeometry x="1030" y="-330" width="30" height="30" as="geometry" />
        </mxCell>
        <mxCell id="62B-yhtZvVCxsL9R08EE-63" value="f" style="text;html=1;align=center;verticalAlign=middle;resizable=0;points=[];autosize=1;strokeColor=none;fillColor=none;fontSize=16;" vertex="1" parent="1">
          <mxGeometry x="1190" y="-330" width="30" height="30" as="geometry" />
        </mxCell>
        <mxCell id="62B-yhtZvVCxsL9R08EE-67" style="edgeStyle=orthogonalEdgeStyle;rounded=0;orthogonalLoop=1;jettySize=auto;html=1;exitX=1;exitY=0.5;exitDx=0;exitDy=0;entryX=0;entryY=0.5;entryDx=0;entryDy=0;" edge="1" parent="1" source="62B-yhtZvVCxsL9R08EE-64" target="62B-yhtZvVCxsL9R08EE-66">
          <mxGeometry relative="1" as="geometry" />
        </mxCell>
        <mxCell id="62B-yhtZvVCxsL9R08EE-64" value="12" style="ellipse;whiteSpace=wrap;html=1;aspect=fixed;" vertex="1" parent="1">
          <mxGeometry x="570" y="-190" width="80" height="80" as="geometry" />
        </mxCell>
        <mxCell id="62B-yhtZvVCxsL9R08EE-71" style="edgeStyle=orthogonalEdgeStyle;rounded=0;orthogonalLoop=1;jettySize=auto;html=1;exitX=1;exitY=0.5;exitDx=0;exitDy=0;" edge="1" parent="1" source="62B-yhtZvVCxsL9R08EE-66" target="62B-yhtZvVCxsL9R08EE-76">
          <mxGeometry relative="1" as="geometry">
            <mxPoint x="915" y="-10" as="targetPoint" />
          </mxGeometry>
        </mxCell>
        <mxCell id="62B-yhtZvVCxsL9R08EE-66" value="28" style="ellipse;whiteSpace=wrap;html=1;aspect=fixed;" vertex="1" parent="1">
          <mxGeometry x="920" y="-190" width="80" height="80" as="geometry" />
        </mxCell>
        <mxCell id="62B-yhtZvVCxsL9R08EE-68" value="l" style="text;html=1;align=center;verticalAlign=middle;resizable=0;points=[];autosize=1;strokeColor=none;fillColor=none;fontSize=16;" vertex="1" parent="1">
          <mxGeometry x="500" y="-190" width="30" height="30" as="geometry" />
        </mxCell>
        <mxCell id="62B-yhtZvVCxsL9R08EE-69" value="o" style="text;html=1;align=center;verticalAlign=middle;resizable=0;points=[];autosize=1;strokeColor=none;fillColor=none;fontSize=16;" vertex="1" parent="1">
          <mxGeometry x="672.5" y="-190" width="30" height="30" as="geometry" />
        </mxCell>
        <mxCell id="62B-yhtZvVCxsL9R08EE-74" value="a" style="text;html=1;align=center;verticalAlign=middle;resizable=0;points=[];autosize=1;strokeColor=none;fillColor=none;fontSize=16;" vertex="1" parent="1">
          <mxGeometry x="1040" y="-190" width="30" height="30" as="geometry" />
        </mxCell>
        <mxCell id="62B-yhtZvVCxsL9R08EE-79" style="edgeStyle=orthogonalEdgeStyle;rounded=0;orthogonalLoop=1;jettySize=auto;html=1;exitX=1;exitY=0.5;exitDx=0;exitDy=0;" edge="1" parent="1" source="62B-yhtZvVCxsL9R08EE-76" target="62B-yhtZvVCxsL9R08EE-202">
          <mxGeometry relative="1" as="geometry">
            <mxPoint x="830" y="100" as="targetPoint" />
          </mxGeometry>
        </mxCell>
        <mxCell id="62B-yhtZvVCxsL9R08EE-76" value="34" style="ellipse;whiteSpace=wrap;html=1;aspect=fixed;" vertex="1" parent="1">
          <mxGeometry x="1090" y="60" width="80" height="80" as="geometry" />
        </mxCell>
        <mxCell id="62B-yhtZvVCxsL9R08EE-80" value="n" style="text;html=1;align=center;verticalAlign=middle;resizable=0;points=[];autosize=1;strokeColor=none;fillColor=none;fontSize=16;" vertex="1" parent="1">
          <mxGeometry x="490" y="60" width="30" height="30" as="geometry" />
        </mxCell>
        <mxCell id="62B-yhtZvVCxsL9R08EE-81" value="t" style="text;html=1;align=center;verticalAlign=middle;resizable=0;points=[];autosize=1;strokeColor=none;fillColor=none;fontSize=16;" vertex="1" parent="1">
          <mxGeometry x="1190" y="60" width="30" height="30" as="geometry" />
        </mxCell>
        <mxCell id="62B-yhtZvVCxsL9R08EE-85" value="f" style="text;html=1;align=center;verticalAlign=middle;resizable=0;points=[];autosize=1;strokeColor=none;fillColor=none;fontSize=16;" vertex="1" parent="1">
          <mxGeometry x="490" y="-40" width="30" height="30" as="geometry" />
        </mxCell>
        <mxCell id="62B-yhtZvVCxsL9R08EE-92" style="edgeStyle=orthogonalEdgeStyle;rounded=0;orthogonalLoop=1;jettySize=auto;html=1;exitX=1;exitY=0.5;exitDx=0;exitDy=0;" edge="1" parent="1" source="62B-yhtZvVCxsL9R08EE-88" target="62B-yhtZvVCxsL9R08EE-118">
          <mxGeometry relative="1" as="geometry">
            <mxPoint x="730.0000000000127" y="310" as="targetPoint" />
          </mxGeometry>
        </mxCell>
        <mxCell id="62B-yhtZvVCxsL9R08EE-88" value="14" style="ellipse;whiteSpace=wrap;html=1;aspect=fixed;" vertex="1" parent="1">
          <mxGeometry x="560" y="560" width="80" height="80" as="geometry" />
        </mxCell>
        <mxCell id="62B-yhtZvVCxsL9R08EE-95" value="a" style="text;html=1;align=center;verticalAlign=middle;resizable=0;points=[];autosize=1;strokeColor=none;fillColor=none;fontSize=16;" vertex="1" parent="1">
          <mxGeometry x="490" y="560" width="30" height="30" as="geometry" />
        </mxCell>
        <mxCell id="62B-yhtZvVCxsL9R08EE-96" value="i" style="text;html=1;align=center;verticalAlign=middle;resizable=0;points=[];autosize=1;strokeColor=none;fillColor=none;fontSize=16;" vertex="1" parent="1">
          <mxGeometry x="680" y="560" width="30" height="30" as="geometry" />
        </mxCell>
        <mxCell id="62B-yhtZvVCxsL9R08EE-106" style="edgeStyle=orthogonalEdgeStyle;rounded=0;orthogonalLoop=1;jettySize=auto;html=1;exitX=1;exitY=0.5;exitDx=0;exitDy=0;entryX=0;entryY=0.5;entryDx=0;entryDy=0;" edge="1" parent="1" source="62B-yhtZvVCxsL9R08EE-99" target="62B-yhtZvVCxsL9R08EE-100">
          <mxGeometry relative="1" as="geometry">
            <Array as="points">
              <mxPoint x="590" y="310" />
              <mxPoint x="590" y="180" />
            </Array>
          </mxGeometry>
        </mxCell>
        <mxCell id="62B-yhtZvVCxsL9R08EE-128" style="edgeStyle=orthogonalEdgeStyle;rounded=0;orthogonalLoop=1;jettySize=auto;html=1;exitX=1;exitY=0.5;exitDx=0;exitDy=0;entryX=0;entryY=0.5;entryDx=0;entryDy=0;" edge="1" parent="1" source="62B-yhtZvVCxsL9R08EE-99" target="62B-yhtZvVCxsL9R08EE-127">
          <mxGeometry relative="1" as="geometry" />
        </mxCell>
        <mxCell id="62B-yhtZvVCxsL9R08EE-207" style="edgeStyle=orthogonalEdgeStyle;rounded=0;orthogonalLoop=1;jettySize=auto;html=1;exitX=0.5;exitY=1;exitDx=0;exitDy=0;entryX=0;entryY=0.5;entryDx=0;entryDy=0;" edge="1" parent="1" source="62B-yhtZvVCxsL9R08EE-99" target="62B-yhtZvVCxsL9R08EE-115">
          <mxGeometry relative="1" as="geometry" />
        </mxCell>
        <mxCell id="62B-yhtZvVCxsL9R08EE-99" value="13" style="ellipse;whiteSpace=wrap;html=1;aspect=fixed;" vertex="1" parent="1">
          <mxGeometry x="555" y="270" width="80" height="80" as="geometry" />
        </mxCell>
        <mxCell id="62B-yhtZvVCxsL9R08EE-107" style="edgeStyle=orthogonalEdgeStyle;rounded=0;orthogonalLoop=1;jettySize=auto;html=1;exitX=1;exitY=0.5;exitDx=0;exitDy=0;" edge="1" parent="1" source="62B-yhtZvVCxsL9R08EE-100" target="62B-yhtZvVCxsL9R08EE-66">
          <mxGeometry relative="1" as="geometry">
            <mxPoint x="900.00000000002" y="180" as="targetPoint" />
          </mxGeometry>
        </mxCell>
        <mxCell id="62B-yhtZvVCxsL9R08EE-100" value="21" style="ellipse;whiteSpace=wrap;html=1;aspect=fixed;" vertex="1" parent="1">
          <mxGeometry x="725" y="140" width="80" height="80" as="geometry" />
        </mxCell>
        <mxCell id="62B-yhtZvVCxsL9R08EE-110" value="e" style="text;html=1;align=center;verticalAlign=middle;resizable=0;points=[];autosize=1;strokeColor=none;fillColor=none;fontSize=16;" vertex="1" parent="1">
          <mxGeometry x="490" y="270" width="30" height="30" as="geometry" />
        </mxCell>
        <mxCell id="62B-yhtZvVCxsL9R08EE-111" value="p" style="text;html=1;align=center;verticalAlign=middle;resizable=0;points=[];autosize=1;strokeColor=none;fillColor=none;fontSize=16;" vertex="1" parent="1">
          <mxGeometry x="680" y="140" width="30" height="30" as="geometry" />
        </mxCell>
        <mxCell id="62B-yhtZvVCxsL9R08EE-112" value="e" style="text;html=1;align=center;verticalAlign=middle;resizable=0;points=[];autosize=1;strokeColor=none;fillColor=none;fontSize=16;" vertex="1" parent="1">
          <mxGeometry x="840" y="140" width="30" height="30" as="geometry" />
        </mxCell>
        <mxCell id="62B-yhtZvVCxsL9R08EE-120" style="edgeStyle=orthogonalEdgeStyle;rounded=0;orthogonalLoop=1;jettySize=auto;html=1;exitX=1;exitY=0.5;exitDx=0;exitDy=0;entryX=0;entryY=0.5;entryDx=0;entryDy=0;" edge="1" parent="1" source="62B-yhtZvVCxsL9R08EE-115" target="62B-yhtZvVCxsL9R08EE-117">
          <mxGeometry relative="1" as="geometry" />
        </mxCell>
        <mxCell id="62B-yhtZvVCxsL9R08EE-115" value="23" style="ellipse;whiteSpace=wrap;html=1;aspect=fixed;" vertex="1" parent="1">
          <mxGeometry x="725" y="410" width="80" height="80" as="geometry" />
        </mxCell>
        <mxCell id="62B-yhtZvVCxsL9R08EE-121" style="edgeStyle=orthogonalEdgeStyle;rounded=0;orthogonalLoop=1;jettySize=auto;html=1;exitX=1;exitY=0.5;exitDx=0;exitDy=0;entryX=0;entryY=0.5;entryDx=0;entryDy=0;" edge="1" parent="1" source="62B-yhtZvVCxsL9R08EE-117" target="62B-yhtZvVCxsL9R08EE-118">
          <mxGeometry relative="1" as="geometry" />
        </mxCell>
        <mxCell id="62B-yhtZvVCxsL9R08EE-117" value="29" style="ellipse;whiteSpace=wrap;html=1;aspect=fixed;" vertex="1" parent="1">
          <mxGeometry x="900" y="410" width="80" height="80" as="geometry" />
        </mxCell>
        <mxCell id="62B-yhtZvVCxsL9R08EE-122" style="edgeStyle=orthogonalEdgeStyle;rounded=0;orthogonalLoop=1;jettySize=auto;html=1;exitX=1;exitY=0.5;exitDx=0;exitDy=0;" edge="1" parent="1" source="62B-yhtZvVCxsL9R08EE-118" target="62B-yhtZvVCxsL9R08EE-202">
          <mxGeometry relative="1" as="geometry">
            <mxPoint x="1240" y="570" as="targetPoint" />
          </mxGeometry>
        </mxCell>
        <mxCell id="62B-yhtZvVCxsL9R08EE-118" value="35" style="ellipse;whiteSpace=wrap;html=1;aspect=fixed;" vertex="1" parent="1">
          <mxGeometry x="1065" y="410" width="80" height="80" as="geometry" />
        </mxCell>
        <mxCell id="62B-yhtZvVCxsL9R08EE-123" value="t" style="text;html=1;align=center;verticalAlign=middle;resizable=0;points=[];autosize=1;strokeColor=none;fillColor=none;fontSize=16;" vertex="1" parent="1">
          <mxGeometry x="680" y="410" width="30" height="30" as="geometry" />
        </mxCell>
        <mxCell id="62B-yhtZvVCxsL9R08EE-124" value="u" style="text;html=1;align=center;verticalAlign=middle;resizable=0;points=[];autosize=1;strokeColor=none;fillColor=none;fontSize=16;" vertex="1" parent="1">
          <mxGeometry x="840" y="410" width="30" height="30" as="geometry" />
        </mxCell>
        <mxCell id="62B-yhtZvVCxsL9R08EE-125" value="r" style="text;html=1;align=center;verticalAlign=middle;resizable=0;points=[];autosize=1;strokeColor=none;fillColor=none;fontSize=16;" vertex="1" parent="1">
          <mxGeometry x="1010" y="410" width="30" height="30" as="geometry" />
        </mxCell>
        <mxCell id="62B-yhtZvVCxsL9R08EE-126" value="n" style="text;html=1;align=center;verticalAlign=middle;resizable=0;points=[];autosize=1;strokeColor=none;fillColor=none;fontSize=16;" vertex="1" parent="1">
          <mxGeometry x="1170" y="410" width="30" height="30" as="geometry" />
        </mxCell>
        <mxCell id="62B-yhtZvVCxsL9R08EE-131" style="edgeStyle=orthogonalEdgeStyle;rounded=0;orthogonalLoop=1;jettySize=auto;html=1;exitX=1;exitY=0.5;exitDx=0;exitDy=0;" edge="1" parent="1" source="62B-yhtZvVCxsL9R08EE-127" target="62B-yhtZvVCxsL9R08EE-202">
          <mxGeometry relative="1" as="geometry">
            <mxPoint x="910" y="700" as="targetPoint" />
          </mxGeometry>
        </mxCell>
        <mxCell id="62B-yhtZvVCxsL9R08EE-127" value="22" style="ellipse;whiteSpace=wrap;html=1;aspect=fixed;" vertex="1" parent="1">
          <mxGeometry x="727.5" y="270" width="80" height="80" as="geometry" />
        </mxCell>
        <mxCell id="62B-yhtZvVCxsL9R08EE-130" value="a" style="text;html=1;align=center;verticalAlign=middle;resizable=0;points=[];autosize=1;strokeColor=none;fillColor=none;fontSize=16;" vertex="1" parent="1">
          <mxGeometry x="680" y="260" width="30" height="30" as="geometry" />
        </mxCell>
        <mxCell id="62B-yhtZvVCxsL9R08EE-132" value="d" style="text;html=1;align=center;verticalAlign=middle;resizable=0;points=[];autosize=1;strokeColor=none;fillColor=none;fontSize=16;" vertex="1" parent="1">
          <mxGeometry x="840" y="260" width="30" height="30" as="geometry" />
        </mxCell>
        <mxCell id="62B-yhtZvVCxsL9R08EE-149" style="edgeStyle=orthogonalEdgeStyle;rounded=0;orthogonalLoop=1;jettySize=auto;html=1;exitX=1;exitY=0.5;exitDx=0;exitDy=0;entryX=0;entryY=0.5;entryDx=0;entryDy=0;" edge="1" parent="1" source="62B-yhtZvVCxsL9R08EE-142" target="62B-yhtZvVCxsL9R08EE-144">
          <mxGeometry relative="1" as="geometry" />
        </mxCell>
        <mxCell id="62B-yhtZvVCxsL9R08EE-142" value="7" style="ellipse;whiteSpace=wrap;html=1;aspect=fixed;" vertex="1" parent="1">
          <mxGeometry x="382.5" y="830" width="80" height="80" as="geometry" />
        </mxCell>
        <mxCell id="62B-yhtZvVCxsL9R08EE-150" style="edgeStyle=orthogonalEdgeStyle;rounded=0;orthogonalLoop=1;jettySize=auto;html=1;exitX=1;exitY=0.5;exitDx=0;exitDy=0;entryX=0;entryY=0.5;entryDx=0;entryDy=0;" edge="1" parent="1" source="62B-yhtZvVCxsL9R08EE-144" target="62B-yhtZvVCxsL9R08EE-145">
          <mxGeometry relative="1" as="geometry" />
        </mxCell>
        <mxCell id="62B-yhtZvVCxsL9R08EE-144" value="16" style="ellipse;whiteSpace=wrap;html=1;aspect=fixed;" vertex="1" parent="1">
          <mxGeometry x="560" y="830" width="80" height="80" as="geometry" />
        </mxCell>
        <mxCell id="62B-yhtZvVCxsL9R08EE-151" style="edgeStyle=orthogonalEdgeStyle;rounded=0;orthogonalLoop=1;jettySize=auto;html=1;exitX=1;exitY=0.5;exitDx=0;exitDy=0;entryX=0;entryY=0.5;entryDx=0;entryDy=0;" edge="1" parent="1" source="62B-yhtZvVCxsL9R08EE-145" target="62B-yhtZvVCxsL9R08EE-146">
          <mxGeometry relative="1" as="geometry" />
        </mxCell>
        <mxCell id="62B-yhtZvVCxsL9R08EE-145" value="24" style="ellipse;whiteSpace=wrap;html=1;aspect=fixed;" vertex="1" parent="1">
          <mxGeometry x="730" y="830" width="80" height="80" as="geometry" />
        </mxCell>
        <mxCell id="62B-yhtZvVCxsL9R08EE-152" style="edgeStyle=orthogonalEdgeStyle;rounded=0;orthogonalLoop=1;jettySize=auto;html=1;exitX=1;exitY=0.5;exitDx=0;exitDy=0;" edge="1" parent="1" source="62B-yhtZvVCxsL9R08EE-146" target="62B-yhtZvVCxsL9R08EE-147">
          <mxGeometry relative="1" as="geometry" />
        </mxCell>
        <mxCell id="62B-yhtZvVCxsL9R08EE-146" value="30" style="ellipse;whiteSpace=wrap;html=1;aspect=fixed;" vertex="1" parent="1">
          <mxGeometry x="900" y="830" width="80" height="80" as="geometry" />
        </mxCell>
        <mxCell id="62B-yhtZvVCxsL9R08EE-153" style="edgeStyle=orthogonalEdgeStyle;rounded=0;orthogonalLoop=1;jettySize=auto;html=1;exitX=1;exitY=0.5;exitDx=0;exitDy=0;" edge="1" parent="1" source="62B-yhtZvVCxsL9R08EE-147" target="62B-yhtZvVCxsL9R08EE-202">
          <mxGeometry relative="1" as="geometry">
            <mxPoint x="1240" y="810" as="targetPoint" />
          </mxGeometry>
        </mxCell>
        <mxCell id="62B-yhtZvVCxsL9R08EE-147" value="36" style="ellipse;whiteSpace=wrap;html=1;aspect=fixed;" vertex="1" parent="1">
          <mxGeometry x="1070" y="830" width="80" height="80" as="geometry" />
        </mxCell>
        <mxCell id="62B-yhtZvVCxsL9R08EE-154" value="s" style="text;html=1;align=center;verticalAlign=middle;resizable=0;points=[];autosize=1;strokeColor=none;fillColor=none;fontSize=16;" vertex="1" parent="1">
          <mxGeometry x="312.5" y="830" width="30" height="30" as="geometry" />
        </mxCell>
        <mxCell id="62B-yhtZvVCxsL9R08EE-155" value="t" style="text;html=1;align=center;verticalAlign=middle;resizable=0;points=[];autosize=1;strokeColor=none;fillColor=none;fontSize=16;" vertex="1" parent="1">
          <mxGeometry x="490" y="830" width="30" height="30" as="geometry" />
        </mxCell>
        <mxCell id="62B-yhtZvVCxsL9R08EE-156" value="r" style="text;html=1;align=center;verticalAlign=middle;resizable=0;points=[];autosize=1;strokeColor=none;fillColor=none;fontSize=16;" vertex="1" parent="1">
          <mxGeometry x="680" y="830" width="30" height="30" as="geometry" />
        </mxCell>
        <mxCell id="62B-yhtZvVCxsL9R08EE-157" value="i" style="text;html=1;align=center;verticalAlign=middle;resizable=0;points=[];autosize=1;strokeColor=none;fillColor=none;fontSize=16;" vertex="1" parent="1">
          <mxGeometry x="840" y="830" width="30" height="30" as="geometry" />
        </mxCell>
        <mxCell id="62B-yhtZvVCxsL9R08EE-158" value="n" style="text;html=1;align=center;verticalAlign=middle;resizable=0;points=[];autosize=1;strokeColor=none;fillColor=none;fontSize=16;" vertex="1" parent="1">
          <mxGeometry x="1010" y="840" width="30" height="30" as="geometry" />
        </mxCell>
        <mxCell id="62B-yhtZvVCxsL9R08EE-159" value="g" style="text;html=1;align=center;verticalAlign=middle;resizable=0;points=[];autosize=1;strokeColor=none;fillColor=none;fontSize=16;" vertex="1" parent="1">
          <mxGeometry x="1170" y="830" width="30" height="30" as="geometry" />
        </mxCell>
        <mxCell id="62B-yhtZvVCxsL9R08EE-170" style="edgeStyle=orthogonalEdgeStyle;rounded=0;orthogonalLoop=1;jettySize=auto;html=1;exitX=1;exitY=0.5;exitDx=0;exitDy=0;entryX=0;entryY=0.5;entryDx=0;entryDy=0;" edge="1" source="62B-yhtZvVCxsL9R08EE-171" target="62B-yhtZvVCxsL9R08EE-173" parent="1">
          <mxGeometry relative="1" as="geometry" />
        </mxCell>
        <mxCell id="62B-yhtZvVCxsL9R08EE-171" value="8" style="ellipse;whiteSpace=wrap;html=1;aspect=fixed;" vertex="1" parent="1">
          <mxGeometry x="382.5" y="960" width="80" height="80" as="geometry" />
        </mxCell>
        <mxCell id="62B-yhtZvVCxsL9R08EE-172" style="edgeStyle=orthogonalEdgeStyle;rounded=0;orthogonalLoop=1;jettySize=auto;html=1;exitX=1;exitY=0.5;exitDx=0;exitDy=0;entryX=0;entryY=0.5;entryDx=0;entryDy=0;" edge="1" source="62B-yhtZvVCxsL9R08EE-173" target="62B-yhtZvVCxsL9R08EE-175" parent="1">
          <mxGeometry relative="1" as="geometry" />
        </mxCell>
        <mxCell id="62B-yhtZvVCxsL9R08EE-173" value="17" style="ellipse;whiteSpace=wrap;html=1;aspect=fixed;" vertex="1" parent="1">
          <mxGeometry x="560" y="960" width="80" height="80" as="geometry" />
        </mxCell>
        <mxCell id="62B-yhtZvVCxsL9R08EE-174" style="edgeStyle=orthogonalEdgeStyle;rounded=0;orthogonalLoop=1;jettySize=auto;html=1;exitX=1;exitY=0.5;exitDx=0;exitDy=0;entryX=0;entryY=0.5;entryDx=0;entryDy=0;" edge="1" source="62B-yhtZvVCxsL9R08EE-175" target="62B-yhtZvVCxsL9R08EE-177" parent="1">
          <mxGeometry relative="1" as="geometry" />
        </mxCell>
        <mxCell id="62B-yhtZvVCxsL9R08EE-175" value="25" style="ellipse;whiteSpace=wrap;html=1;aspect=fixed;" vertex="1" parent="1">
          <mxGeometry x="730" y="960" width="80" height="80" as="geometry" />
        </mxCell>
        <mxCell id="62B-yhtZvVCxsL9R08EE-176" style="edgeStyle=orthogonalEdgeStyle;rounded=0;orthogonalLoop=1;jettySize=auto;html=1;exitX=1;exitY=0.5;exitDx=0;exitDy=0;" edge="1" source="62B-yhtZvVCxsL9R08EE-177" target="62B-yhtZvVCxsL9R08EE-202" parent="1">
          <mxGeometry relative="1" as="geometry">
            <mxPoint x="1075" y="960" as="targetPoint" />
          </mxGeometry>
        </mxCell>
        <mxCell id="62B-yhtZvVCxsL9R08EE-177" value="31" style="ellipse;whiteSpace=wrap;html=1;aspect=fixed;" vertex="1" parent="1">
          <mxGeometry x="900" y="960" width="80" height="80" as="geometry" />
        </mxCell>
        <mxCell id="62B-yhtZvVCxsL9R08EE-180" value="n" style="text;html=1;align=center;verticalAlign=middle;resizable=0;points=[];autosize=1;strokeColor=none;fillColor=none;fontSize=16;" vertex="1" parent="1">
          <mxGeometry x="490" y="960" width="30" height="30" as="geometry" />
        </mxCell>
        <mxCell id="62B-yhtZvVCxsL9R08EE-181" value="t" style="text;html=1;align=center;verticalAlign=middle;resizable=0;points=[];autosize=1;strokeColor=none;fillColor=none;fontSize=16;" vertex="1" parent="1">
          <mxGeometry x="680" y="960" width="30" height="30" as="geometry" />
        </mxCell>
        <mxCell id="62B-yhtZvVCxsL9R08EE-182" value="i" style="text;html=1;align=center;verticalAlign=middle;resizable=0;points=[];autosize=1;strokeColor=none;fillColor=none;fontSize=16;" vertex="1" parent="1">
          <mxGeometry x="840" y="960" width="30" height="30" as="geometry" />
        </mxCell>
        <mxCell id="62B-yhtZvVCxsL9R08EE-183" value="l" style="text;html=1;align=center;verticalAlign=middle;resizable=0;points=[];autosize=1;strokeColor=none;fillColor=none;fontSize=16;" vertex="1" parent="1">
          <mxGeometry x="1010" y="960" width="30" height="30" as="geometry" />
        </mxCell>
        <mxCell id="62B-yhtZvVCxsL9R08EE-185" value="u" style="text;html=1;align=center;verticalAlign=middle;resizable=0;points=[];autosize=1;strokeColor=none;fillColor=none;fontSize=16;" vertex="1" parent="1">
          <mxGeometry x="312.5" y="960" width="30" height="30" as="geometry" />
        </mxCell>
        <mxCell id="62B-yhtZvVCxsL9R08EE-187" style="edgeStyle=orthogonalEdgeStyle;rounded=0;orthogonalLoop=1;jettySize=auto;html=1;exitX=1;exitY=0.5;exitDx=0;exitDy=0;entryX=0;entryY=0.5;entryDx=0;entryDy=0;" edge="1" source="62B-yhtZvVCxsL9R08EE-188" target="62B-yhtZvVCxsL9R08EE-190" parent="1">
          <mxGeometry relative="1" as="geometry" />
        </mxCell>
        <mxCell id="62B-yhtZvVCxsL9R08EE-188" value="9" style="ellipse;whiteSpace=wrap;html=1;aspect=fixed;" vertex="1" parent="1">
          <mxGeometry x="385" y="1080" width="80" height="80" as="geometry" />
        </mxCell>
        <mxCell id="62B-yhtZvVCxsL9R08EE-189" style="edgeStyle=orthogonalEdgeStyle;rounded=0;orthogonalLoop=1;jettySize=auto;html=1;exitX=1;exitY=0.5;exitDx=0;exitDy=0;entryX=0;entryY=0.5;entryDx=0;entryDy=0;" edge="1" source="62B-yhtZvVCxsL9R08EE-190" target="62B-yhtZvVCxsL9R08EE-192" parent="1">
          <mxGeometry relative="1" as="geometry" />
        </mxCell>
        <mxCell id="62B-yhtZvVCxsL9R08EE-190" value="18" style="ellipse;whiteSpace=wrap;html=1;aspect=fixed;" vertex="1" parent="1">
          <mxGeometry x="560" y="1080" width="80" height="80" as="geometry" />
        </mxCell>
        <mxCell id="62B-yhtZvVCxsL9R08EE-191" style="edgeStyle=orthogonalEdgeStyle;rounded=0;orthogonalLoop=1;jettySize=auto;html=1;exitX=1;exitY=0.5;exitDx=0;exitDy=0;entryX=0;entryY=0.5;entryDx=0;entryDy=0;" edge="1" source="62B-yhtZvVCxsL9R08EE-192" target="62B-yhtZvVCxsL9R08EE-194" parent="1">
          <mxGeometry relative="1" as="geometry" />
        </mxCell>
        <mxCell id="62B-yhtZvVCxsL9R08EE-192" value="26" style="ellipse;whiteSpace=wrap;html=1;aspect=fixed;" vertex="1" parent="1">
          <mxGeometry x="730" y="1080" width="80" height="80" as="geometry" />
        </mxCell>
        <mxCell id="62B-yhtZvVCxsL9R08EE-193" style="edgeStyle=orthogonalEdgeStyle;rounded=0;orthogonalLoop=1;jettySize=auto;html=1;exitX=1;exitY=0.5;exitDx=0;exitDy=0;" edge="1" source="62B-yhtZvVCxsL9R08EE-194" target="62B-yhtZvVCxsL9R08EE-202" parent="1">
          <mxGeometry relative="1" as="geometry">
            <mxPoint x="1075" y="1089.9999999999995" as="targetPoint" />
          </mxGeometry>
        </mxCell>
        <mxCell id="62B-yhtZvVCxsL9R08EE-194" value="32" style="ellipse;whiteSpace=wrap;html=1;aspect=fixed;" vertex="1" parent="1">
          <mxGeometry x="900" y="1080" width="80" height="80" as="geometry" />
        </mxCell>
        <mxCell id="62B-yhtZvVCxsL9R08EE-195" value="r" style="text;html=1;align=center;verticalAlign=middle;resizable=0;points=[];autosize=1;strokeColor=none;fillColor=none;fontSize=16;" vertex="1" parent="1">
          <mxGeometry x="490" y="1080" width="30" height="30" as="geometry" />
        </mxCell>
        <mxCell id="62B-yhtZvVCxsL9R08EE-196" value="i" style="text;html=1;align=center;verticalAlign=middle;resizable=0;points=[];autosize=1;strokeColor=none;fillColor=none;fontSize=16;" vertex="1" parent="1">
          <mxGeometry x="680" y="1080" width="30" height="30" as="geometry" />
        </mxCell>
        <mxCell id="62B-yhtZvVCxsL9R08EE-197" value="t" style="text;html=1;align=center;verticalAlign=middle;resizable=0;points=[];autosize=1;strokeColor=none;fillColor=none;fontSize=16;" vertex="1" parent="1">
          <mxGeometry x="840" y="1080" width="30" height="30" as="geometry" />
        </mxCell>
        <mxCell id="62B-yhtZvVCxsL9R08EE-198" value="e" style="text;html=1;align=center;verticalAlign=middle;resizable=0;points=[];autosize=1;strokeColor=none;fillColor=none;fontSize=16;" vertex="1" parent="1">
          <mxGeometry x="1010" y="1080" width="30" height="30" as="geometry" />
        </mxCell>
        <mxCell id="62B-yhtZvVCxsL9R08EE-199" value="w" style="text;html=1;align=center;verticalAlign=middle;resizable=0;points=[];autosize=1;strokeColor=none;fillColor=none;fontSize=16;" vertex="1" parent="1">
          <mxGeometry x="310" y="1080" width="40" height="30" as="geometry" />
        </mxCell>
        <mxCell id="62B-yhtZvVCxsL9R08EE-202" value="37" style="ellipse;shape=doubleEllipse;whiteSpace=wrap;html=1;aspect=fixed;" vertex="1" parent="1">
          <mxGeometry x="1800" y="270" width="80" height="80" as="geometry" />
        </mxCell>
        <mxCell id="62B-yhtZvVCxsL9R08EE-210" style="edgeStyle=orthogonalEdgeStyle;rounded=0;orthogonalLoop=1;jettySize=auto;html=1;exitX=1;exitY=0.5;exitDx=0;exitDy=0;entryX=0;entryY=0.5;entryDx=0;entryDy=0;" edge="1" source="62B-yhtZvVCxsL9R08EE-211" target="62B-yhtZvVCxsL9R08EE-213" parent="1">
          <mxGeometry relative="1" as="geometry" />
        </mxCell>
        <mxCell id="62B-yhtZvVCxsL9R08EE-227" style="edgeStyle=orthogonalEdgeStyle;rounded=0;orthogonalLoop=1;jettySize=auto;html=1;entryX=0;entryY=0.5;entryDx=0;entryDy=0;exitX=1;exitY=1;exitDx=0;exitDy=0;" edge="1" parent="1" source="62B-yhtZvVCxsL9R08EE-1" target="62B-yhtZvVCxsL9R08EE-211">
          <mxGeometry relative="1" as="geometry">
            <mxPoint x="270" y="930" as="targetPoint" />
            <mxPoint x="300" y="950" as="sourcePoint" />
            <Array as="points">
              <mxPoint x="208" y="350" />
              <mxPoint x="208" y="730" />
            </Array>
          </mxGeometry>
        </mxCell>
        <mxCell id="62B-yhtZvVCxsL9R08EE-211" value="6" style="ellipse;whiteSpace=wrap;html=1;aspect=fixed;" vertex="1" parent="1">
          <mxGeometry x="380" y="690" width="80" height="80" as="geometry" />
        </mxCell>
        <mxCell id="62B-yhtZvVCxsL9R08EE-229" style="edgeStyle=orthogonalEdgeStyle;rounded=0;orthogonalLoop=1;jettySize=auto;html=1;exitX=1;exitY=0.5;exitDx=0;exitDy=0;" edge="1" parent="1" source="62B-yhtZvVCxsL9R08EE-213" target="62B-yhtZvVCxsL9R08EE-118">
          <mxGeometry relative="1" as="geometry" />
        </mxCell>
        <mxCell id="62B-yhtZvVCxsL9R08EE-213" value="15" style="ellipse;whiteSpace=wrap;html=1;aspect=fixed;" vertex="1" parent="1">
          <mxGeometry x="560" y="690" width="80" height="80" as="geometry" />
        </mxCell>
        <mxCell id="62B-yhtZvVCxsL9R08EE-219" value="t" style="text;html=1;align=center;verticalAlign=middle;resizable=0;points=[];autosize=1;strokeColor=none;fillColor=none;fontSize=16;" vertex="1" parent="1">
          <mxGeometry x="312.5" y="690" width="30" height="30" as="geometry" />
        </mxCell>
        <mxCell id="62B-yhtZvVCxsL9R08EE-220" value="h" style="text;html=1;align=center;verticalAlign=middle;resizable=0;points=[];autosize=1;strokeColor=none;fillColor=none;fontSize=16;" vertex="1" parent="1">
          <mxGeometry x="490" y="690" width="30" height="30" as="geometry" />
        </mxCell>
        <mxCell id="62B-yhtZvVCxsL9R08EE-221" value="e" style="text;html=1;align=center;verticalAlign=middle;resizable=0;points=[];autosize=1;strokeColor=none;fillColor=none;fontSize=16;" vertex="1" parent="1">
          <mxGeometry x="680" y="690" width="30" height="30" as="geometry" />
        </mxCell>
      </root>
    </mxGraphModel>
  </diagram>
</mxfile>
